<svg width="16" height="32" viewBox="0 0 16 32" fill="none" xmlns="http://www.w3.org/2000/svg">
<path d="M1.1613 29.724C0.918402 29.9755 0.784001 30.3123 0.787101 30.6619C0.790101 31.0115 0.930301 31.3459 1.1775 31.5931C1.4247 31.8403 1.7592 31.9806 2.1088 31.9836C2.4583 31.9866 2.7951 31.8522 3.0466 31.6094L13.9426 20.7134C15.1924 19.4632 15.8945 17.7678 15.8945 16C15.8945 14.2323 15.1924 12.5369 13.9426 11.2867L3.0466 0.390698C2.7951 0.147798 2.4583 0.0133993 2.1088 0.0164993C1.7592 0.0194992 1.4247 0.159699 1.1775 0.406899C0.930303 0.654099 0.790104 0.988598 0.787103 1.3382C0.784003 1.6878 0.918404 2.0246 1.1613 2.276L12.0573 13.172C12.8072 13.9221 13.2284 14.9394 13.2284 16C13.2284 17.0607 12.8072 18.0779 12.0573 18.828L1.1613 29.724Z" fill="#C2C8CD"/>
</svg>
